<mxfile host="app.diagrams.net" agent="Mozilla/5.0 (Windows NT 10.0; Win64; x64) AppleWebKit/537.36 (KHTML, like Gecko) Chrome/135.0.0.0 Safari/537.36" version="26.2.12">
  <diagram id="C5RBs43oDa-KdzZeNtuy" name="Page-1">
    <mxGraphModel dx="1051" dy="593" grid="1" gridSize="10" guides="1" tooltips="1" connect="1" arrows="1" fold="1" page="1" pageScale="1" pageWidth="827" pageHeight="1169" math="0" shadow="0">
      <root>
        <mxCell id="WIyWlLk6GJQsqaUBKTNV-0" />
        <mxCell id="WIyWlLk6GJQsqaUBKTNV-1" parent="WIyWlLk6GJQsqaUBKTNV-0" />
        <mxCell id="_3FRUv7BG2-gvsJjdi5n-79" value="" style="endArrow=none;html=1;rounded=0;strokeColor=light-dark(#000000,#808080);" edge="1" parent="WIyWlLk6GJQsqaUBKTNV-1">
          <mxGeometry width="50" height="50" relative="1" as="geometry">
            <mxPoint x="180" y="210" as="sourcePoint" />
            <mxPoint x="180" y="210" as="targetPoint" />
            <Array as="points">
              <mxPoint x="180" y="20" />
              <mxPoint x="770" y="20" />
              <mxPoint x="770" y="480" />
              <mxPoint x="410" y="480" />
              <mxPoint x="410" y="340" />
              <mxPoint x="180" y="340" />
            </Array>
          </mxGeometry>
        </mxCell>
        <mxCell id="_3FRUv7BG2-gvsJjdi5n-0" value="Actor" style="rounded=0;whiteSpace=wrap;html=1;" vertex="1" parent="WIyWlLk6GJQsqaUBKTNV-1">
          <mxGeometry x="70" y="199.5" width="90" height="50" as="geometry" />
        </mxCell>
        <mxCell id="_3FRUv7BG2-gvsJjdi5n-1" value="" style="rounded=0;whiteSpace=wrap;html=1;" vertex="1" parent="WIyWlLk6GJQsqaUBKTNV-1">
          <mxGeometry x="200" y="149.5" width="140" height="150" as="geometry" />
        </mxCell>
        <mxCell id="_3FRUv7BG2-gvsJjdi5n-2" value="Login Page&lt;div&gt;(login/route.tsx)&lt;/div&gt;" style="text;html=1;align=center;verticalAlign=middle;whiteSpace=wrap;rounded=0;" vertex="1" parent="WIyWlLk6GJQsqaUBKTNV-1">
          <mxGeometry x="230" y="163" width="80" height="30" as="geometry" />
        </mxCell>
        <mxCell id="_3FRUv7BG2-gvsJjdi5n-3" value="Login Button" style="rounded=0;whiteSpace=wrap;html=1;" vertex="1" parent="WIyWlLk6GJQsqaUBKTNV-1">
          <mxGeometry x="210" y="209.5" width="120" height="60" as="geometry" />
        </mxCell>
        <mxCell id="_3FRUv7BG2-gvsJjdi5n-5" style="edgeStyle=orthogonalEdgeStyle;rounded=0;orthogonalLoop=1;jettySize=auto;html=1;exitX=0.5;exitY=1;exitDx=0;exitDy=0;" edge="1" parent="WIyWlLk6GJQsqaUBKTNV-1" source="_3FRUv7BG2-gvsJjdi5n-1" target="_3FRUv7BG2-gvsJjdi5n-1">
          <mxGeometry relative="1" as="geometry" />
        </mxCell>
        <mxCell id="_3FRUv7BG2-gvsJjdi5n-6" value="" style="endArrow=classic;html=1;rounded=0;entryX=0;entryY=0.5;entryDx=0;entryDy=0;" edge="1" parent="WIyWlLk6GJQsqaUBKTNV-1" target="_3FRUv7BG2-gvsJjdi5n-1">
          <mxGeometry width="50" height="50" relative="1" as="geometry">
            <mxPoint x="160" y="225" as="sourcePoint" />
            <mxPoint x="210" y="180" as="targetPoint" />
          </mxGeometry>
        </mxCell>
        <mxCell id="_3FRUv7BG2-gvsJjdi5n-7" value="Google Cloud Platforms" style="rounded=0;whiteSpace=wrap;html=1;" vertex="1" parent="WIyWlLk6GJQsqaUBKTNV-1">
          <mxGeometry x="140" y="350" width="120" height="60" as="geometry" />
        </mxCell>
        <mxCell id="_3FRUv7BG2-gvsJjdi5n-8" value="Supabase" style="rounded=0;whiteSpace=wrap;html=1;" vertex="1" parent="WIyWlLk6GJQsqaUBKTNV-1">
          <mxGeometry x="280" y="350" width="120" height="60" as="geometry" />
        </mxCell>
        <mxCell id="_3FRUv7BG2-gvsJjdi5n-9" value="" style="endArrow=classic;html=1;rounded=0;entryX=0.5;entryY=0;entryDx=0;entryDy=0;exitX=0.75;exitY=1;exitDx=0;exitDy=0;" edge="1" parent="WIyWlLk6GJQsqaUBKTNV-1" source="_3FRUv7BG2-gvsJjdi5n-3" target="_3FRUv7BG2-gvsJjdi5n-8">
          <mxGeometry width="50" height="50" relative="1" as="geometry">
            <mxPoint x="270" y="270" as="sourcePoint" />
            <mxPoint x="320" y="220" as="targetPoint" />
            <Array as="points">
              <mxPoint x="300" y="320" />
              <mxPoint x="340" y="320" />
            </Array>
          </mxGeometry>
        </mxCell>
        <mxCell id="_3FRUv7BG2-gvsJjdi5n-10" value="" style="endArrow=classic;html=1;rounded=0;entryX=1;entryY=0.5;entryDx=0;entryDy=0;" edge="1" parent="WIyWlLk6GJQsqaUBKTNV-1" target="_3FRUv7BG2-gvsJjdi5n-7">
          <mxGeometry width="50" height="50" relative="1" as="geometry">
            <mxPoint x="280" y="380" as="sourcePoint" />
            <mxPoint x="330" y="330" as="targetPoint" />
          </mxGeometry>
        </mxCell>
        <mxCell id="_3FRUv7BG2-gvsJjdi5n-11" value="" style="endArrow=classic;html=1;rounded=0;entryX=0.25;entryY=1;entryDx=0;entryDy=0;" edge="1" parent="WIyWlLk6GJQsqaUBKTNV-1" target="_3FRUv7BG2-gvsJjdi5n-3">
          <mxGeometry width="50" height="50" relative="1" as="geometry">
            <mxPoint x="200" y="350" as="sourcePoint" />
            <mxPoint x="250" y="300" as="targetPoint" />
            <Array as="points">
              <mxPoint x="200" y="320" />
              <mxPoint x="240" y="320" />
            </Array>
          </mxGeometry>
        </mxCell>
        <mxCell id="_3FRUv7BG2-gvsJjdi5n-12" value="OAuth" style="text;html=1;align=center;verticalAlign=middle;whiteSpace=wrap;rounded=0;" vertex="1" parent="WIyWlLk6GJQsqaUBKTNV-1">
          <mxGeometry x="240" y="410" width="60" height="30" as="geometry" />
        </mxCell>
        <mxCell id="_3FRUv7BG2-gvsJjdi5n-13" value="" style="rounded=0;whiteSpace=wrap;html=1;" vertex="1" parent="WIyWlLk6GJQsqaUBKTNV-1">
          <mxGeometry x="380" y="124.25" width="140" height="199.5" as="geometry" />
        </mxCell>
        <mxCell id="_3FRUv7BG2-gvsJjdi5n-14" value="Home Page&lt;div&gt;(home/route.tsx)&lt;/div&gt;" style="text;html=1;align=center;verticalAlign=middle;whiteSpace=wrap;rounded=0;" vertex="1" parent="WIyWlLk6GJQsqaUBKTNV-1">
          <mxGeometry x="410" y="136" width="80" height="30" as="geometry" />
        </mxCell>
        <mxCell id="_3FRUv7BG2-gvsJjdi5n-32" style="edgeStyle=orthogonalEdgeStyle;rounded=0;orthogonalLoop=1;jettySize=auto;html=1;exitX=1;exitY=0.5;exitDx=0;exitDy=0;entryX=0;entryY=0.75;entryDx=0;entryDy=0;" edge="1" parent="WIyWlLk6GJQsqaUBKTNV-1" source="_3FRUv7BG2-gvsJjdi5n-15" target="_3FRUv7BG2-gvsJjdi5n-24">
          <mxGeometry relative="1" as="geometry" />
        </mxCell>
        <mxCell id="_3FRUv7BG2-gvsJjdi5n-15" value="Garden Button" style="rounded=0;whiteSpace=wrap;html=1;" vertex="1" parent="WIyWlLk6GJQsqaUBKTNV-1">
          <mxGeometry x="390" y="213.75" width="120" height="30.5" as="geometry" />
        </mxCell>
        <mxCell id="_3FRUv7BG2-gvsJjdi5n-16" style="edgeStyle=orthogonalEdgeStyle;rounded=0;orthogonalLoop=1;jettySize=auto;html=1;exitX=0.5;exitY=1;exitDx=0;exitDy=0;" edge="1" parent="WIyWlLk6GJQsqaUBKTNV-1" source="_3FRUv7BG2-gvsJjdi5n-13" target="_3FRUv7BG2-gvsJjdi5n-13">
          <mxGeometry relative="1" as="geometry" />
        </mxCell>
        <mxCell id="_3FRUv7BG2-gvsJjdi5n-46" style="edgeStyle=orthogonalEdgeStyle;rounded=0;orthogonalLoop=1;jettySize=auto;html=1;exitX=1;exitY=0.5;exitDx=0;exitDy=0;entryX=0;entryY=0.25;entryDx=0;entryDy=0;" edge="1" parent="WIyWlLk6GJQsqaUBKTNV-1" source="_3FRUv7BG2-gvsJjdi5n-17" target="_3FRUv7BG2-gvsJjdi5n-38">
          <mxGeometry relative="1" as="geometry" />
        </mxCell>
        <mxCell id="_3FRUv7BG2-gvsJjdi5n-17" value="Log Activity Button" style="rounded=0;whiteSpace=wrap;html=1;" vertex="1" parent="WIyWlLk6GJQsqaUBKTNV-1">
          <mxGeometry x="390" y="248.5" width="120" height="30.5" as="geometry" />
        </mxCell>
        <mxCell id="_3FRUv7BG2-gvsJjdi5n-74" style="edgeStyle=orthogonalEdgeStyle;rounded=0;orthogonalLoop=1;jettySize=auto;html=1;exitX=0.5;exitY=1;exitDx=0;exitDy=0;entryX=-0.014;entryY=0.878;entryDx=0;entryDy=0;entryPerimeter=0;" edge="1" parent="WIyWlLk6GJQsqaUBKTNV-1" source="_3FRUv7BG2-gvsJjdi5n-18" target="_3FRUv7BG2-gvsJjdi5n-54">
          <mxGeometry relative="1" as="geometry">
            <mxPoint x="550" y="410" as="targetPoint" />
            <Array as="points">
              <mxPoint x="450" y="362" />
              <mxPoint x="551" y="362" />
              <mxPoint x="551" y="459" />
            </Array>
          </mxGeometry>
        </mxCell>
        <mxCell id="_3FRUv7BG2-gvsJjdi5n-18" value="Profile Button" style="rounded=0;whiteSpace=wrap;html=1;" vertex="1" parent="WIyWlLk6GJQsqaUBKTNV-1">
          <mxGeometry x="390" y="284.25" width="120" height="30.5" as="geometry" />
        </mxCell>
        <mxCell id="_3FRUv7BG2-gvsJjdi5n-20" value="Plant Showcase" style="rounded=0;whiteSpace=wrap;html=1;" vertex="1" parent="WIyWlLk6GJQsqaUBKTNV-1">
          <mxGeometry x="390" y="179" width="120" height="30.5" as="geometry" />
        </mxCell>
        <mxCell id="_3FRUv7BG2-gvsJjdi5n-23" style="edgeStyle=orthogonalEdgeStyle;rounded=0;orthogonalLoop=1;jettySize=auto;html=1;exitX=1;exitY=0.5;exitDx=0;exitDy=0;entryX=0;entryY=0.579;entryDx=0;entryDy=0;entryPerimeter=0;" edge="1" parent="WIyWlLk6GJQsqaUBKTNV-1" source="_3FRUv7BG2-gvsJjdi5n-3" target="_3FRUv7BG2-gvsJjdi5n-13">
          <mxGeometry relative="1" as="geometry" />
        </mxCell>
        <mxCell id="_3FRUv7BG2-gvsJjdi5n-24" value="" style="rounded=0;whiteSpace=wrap;html=1;" vertex="1" parent="WIyWlLk6GJQsqaUBKTNV-1">
          <mxGeometry x="600" y="47" width="140" height="165.75" as="geometry" />
        </mxCell>
        <mxCell id="_3FRUv7BG2-gvsJjdi5n-25" value="Garden Page&lt;div&gt;(garden/route.tsx)&lt;/div&gt;" style="text;html=1;align=center;verticalAlign=middle;whiteSpace=wrap;rounded=0;" vertex="1" parent="WIyWlLk6GJQsqaUBKTNV-1">
          <mxGeometry x="630" y="58.75" width="80" height="30" as="geometry" />
        </mxCell>
        <mxCell id="_3FRUv7BG2-gvsJjdi5n-26" value="Plant Shop" style="rounded=0;whiteSpace=wrap;html=1;" vertex="1" parent="WIyWlLk6GJQsqaUBKTNV-1">
          <mxGeometry x="610" y="136.5" width="120" height="30.5" as="geometry" />
        </mxCell>
        <mxCell id="_3FRUv7BG2-gvsJjdi5n-27" style="edgeStyle=orthogonalEdgeStyle;rounded=0;orthogonalLoop=1;jettySize=auto;html=1;exitX=0.5;exitY=1;exitDx=0;exitDy=0;" edge="1" parent="WIyWlLk6GJQsqaUBKTNV-1" source="_3FRUv7BG2-gvsJjdi5n-24" target="_3FRUv7BG2-gvsJjdi5n-24">
          <mxGeometry relative="1" as="geometry" />
        </mxCell>
        <mxCell id="_3FRUv7BG2-gvsJjdi5n-28" value="Water Plants" style="rounded=0;whiteSpace=wrap;html=1;" vertex="1" parent="WIyWlLk6GJQsqaUBKTNV-1">
          <mxGeometry x="610" y="171.25" width="120" height="30.5" as="geometry" />
        </mxCell>
        <mxCell id="_3FRUv7BG2-gvsJjdi5n-30" value="Garden View" style="rounded=0;whiteSpace=wrap;html=1;" vertex="1" parent="WIyWlLk6GJQsqaUBKTNV-1">
          <mxGeometry x="610" y="101.75" width="120" height="30.5" as="geometry" />
        </mxCell>
        <mxCell id="_3FRUv7BG2-gvsJjdi5n-31" value="auth/callback/route.ts" style="text;html=1;align=center;verticalAlign=middle;whiteSpace=wrap;rounded=0;" vertex="1" parent="WIyWlLk6GJQsqaUBKTNV-1">
          <mxGeometry x="240" y="317" width="60" height="30" as="geometry" />
        </mxCell>
        <mxCell id="_3FRUv7BG2-gvsJjdi5n-34" style="edgeStyle=orthogonalEdgeStyle;rounded=0;orthogonalLoop=1;jettySize=auto;html=1;exitX=0.5;exitY=1;exitDx=0;exitDy=0;entryX=1;entryY=0.5;entryDx=0;entryDy=0;" edge="1" parent="WIyWlLk6GJQsqaUBKTNV-1" source="_3FRUv7BG2-gvsJjdi5n-33" target="_3FRUv7BG2-gvsJjdi5n-20">
          <mxGeometry relative="1" as="geometry">
            <mxPoint x="540" y="140" as="targetPoint" />
            <Array as="points">
              <mxPoint x="450" y="115" />
              <mxPoint x="541" y="115" />
              <mxPoint x="541" y="194" />
            </Array>
          </mxGeometry>
        </mxCell>
        <mxCell id="_3FRUv7BG2-gvsJjdi5n-35" value="Plants" style="edgeLabel;html=1;align=center;verticalAlign=middle;resizable=0;points=[];" vertex="1" connectable="0" parent="_3FRUv7BG2-gvsJjdi5n-34">
          <mxGeometry x="0.3756" y="-1" relative="1" as="geometry">
            <mxPoint as="offset" />
          </mxGeometry>
        </mxCell>
        <mxCell id="_3FRUv7BG2-gvsJjdi5n-33" value="Components&lt;div&gt;*.tsx&lt;/div&gt;" style="rounded=0;whiteSpace=wrap;html=1;" vertex="1" parent="WIyWlLk6GJQsqaUBKTNV-1">
          <mxGeometry x="390" y="29" width="120" height="60" as="geometry" />
        </mxCell>
        <mxCell id="_3FRUv7BG2-gvsJjdi5n-36" value="" style="endArrow=classic;html=1;rounded=0;entryX=0;entryY=0.5;entryDx=0;entryDy=0;" edge="1" parent="WIyWlLk6GJQsqaUBKTNV-1">
          <mxGeometry width="50" height="50" relative="1" as="geometry">
            <mxPoint x="560" y="155" as="sourcePoint" />
            <mxPoint x="610" y="154.75" as="targetPoint" />
          </mxGeometry>
        </mxCell>
        <mxCell id="_3FRUv7BG2-gvsJjdi5n-38" value="" style="rounded=0;whiteSpace=wrap;html=1;" vertex="1" parent="WIyWlLk6GJQsqaUBKTNV-1">
          <mxGeometry x="600" y="230" width="140" height="133.87" as="geometry" />
        </mxCell>
        <mxCell id="_3FRUv7BG2-gvsJjdi5n-39" value="Activity Page&lt;div&gt;(activity/route.tsx)&lt;/div&gt;" style="text;html=1;align=center;verticalAlign=middle;whiteSpace=wrap;rounded=0;" vertex="1" parent="WIyWlLk6GJQsqaUBKTNV-1">
          <mxGeometry x="630" y="238.69" width="80" height="30" as="geometry" />
        </mxCell>
        <mxCell id="_3FRUv7BG2-gvsJjdi5n-40" value="Log Sleep" style="rounded=0;whiteSpace=wrap;html=1;" vertex="1" parent="WIyWlLk6GJQsqaUBKTNV-1">
          <mxGeometry x="610" y="316.44" width="120" height="30.5" as="geometry" />
        </mxCell>
        <mxCell id="_3FRUv7BG2-gvsJjdi5n-41" style="edgeStyle=orthogonalEdgeStyle;rounded=0;orthogonalLoop=1;jettySize=auto;html=1;exitX=0.5;exitY=1;exitDx=0;exitDy=0;" edge="1" parent="WIyWlLk6GJQsqaUBKTNV-1" source="_3FRUv7BG2-gvsJjdi5n-38" target="_3FRUv7BG2-gvsJjdi5n-38">
          <mxGeometry relative="1" as="geometry" />
        </mxCell>
        <mxCell id="_3FRUv7BG2-gvsJjdi5n-43" value="Log Habits" style="rounded=0;whiteSpace=wrap;html=1;" vertex="1" parent="WIyWlLk6GJQsqaUBKTNV-1">
          <mxGeometry x="610" y="281.69" width="120" height="30.5" as="geometry" />
        </mxCell>
        <mxCell id="_3FRUv7BG2-gvsJjdi5n-44" style="edgeStyle=orthogonalEdgeStyle;rounded=0;orthogonalLoop=1;jettySize=auto;html=1;exitX=0.5;exitY=1;exitDx=0;exitDy=0;" edge="1" parent="WIyWlLk6GJQsqaUBKTNV-1" source="_3FRUv7BG2-gvsJjdi5n-38" target="_3FRUv7BG2-gvsJjdi5n-38">
          <mxGeometry relative="1" as="geometry" />
        </mxCell>
        <mxCell id="_3FRUv7BG2-gvsJjdi5n-54" value="" style="rounded=0;whiteSpace=wrap;html=1;" vertex="1" parent="WIyWlLk6GJQsqaUBKTNV-1">
          <mxGeometry x="600" y="380" width="140" height="90" as="geometry" />
        </mxCell>
        <mxCell id="_3FRUv7BG2-gvsJjdi5n-55" value="Profile Page&lt;div&gt;(profile/route.tsx)&lt;/div&gt;" style="text;html=1;align=center;verticalAlign=middle;whiteSpace=wrap;rounded=0;" vertex="1" parent="WIyWlLk6GJQsqaUBKTNV-1">
          <mxGeometry x="630" y="388.69" width="80" height="30" as="geometry" />
        </mxCell>
        <mxCell id="_3FRUv7BG2-gvsJjdi5n-57" style="edgeStyle=orthogonalEdgeStyle;rounded=0;orthogonalLoop=1;jettySize=auto;html=1;exitX=0.5;exitY=1;exitDx=0;exitDy=0;" edge="1" parent="WIyWlLk6GJQsqaUBKTNV-1" source="_3FRUv7BG2-gvsJjdi5n-54" target="_3FRUv7BG2-gvsJjdi5n-54">
          <mxGeometry relative="1" as="geometry" />
        </mxCell>
        <mxCell id="_3FRUv7BG2-gvsJjdi5n-58" value="Customize Profile" style="rounded=0;whiteSpace=wrap;html=1;" vertex="1" parent="WIyWlLk6GJQsqaUBKTNV-1">
          <mxGeometry x="610" y="431.69" width="120" height="30.5" as="geometry" />
        </mxCell>
        <mxCell id="_3FRUv7BG2-gvsJjdi5n-59" style="edgeStyle=orthogonalEdgeStyle;rounded=0;orthogonalLoop=1;jettySize=auto;html=1;exitX=0.5;exitY=1;exitDx=0;exitDy=0;" edge="1" parent="WIyWlLk6GJQsqaUBKTNV-1" source="_3FRUv7BG2-gvsJjdi5n-54" target="_3FRUv7BG2-gvsJjdi5n-54">
          <mxGeometry relative="1" as="geometry" />
        </mxCell>
        <mxCell id="_3FRUv7BG2-gvsJjdi5n-60" style="edgeStyle=orthogonalEdgeStyle;rounded=0;orthogonalLoop=1;jettySize=auto;html=1;exitX=0.5;exitY=1;exitDx=0;exitDy=0;" edge="1" parent="WIyWlLk6GJQsqaUBKTNV-1" source="_3FRUv7BG2-gvsJjdi5n-54" target="_3FRUv7BG2-gvsJjdi5n-54">
          <mxGeometry relative="1" as="geometry" />
        </mxCell>
        <mxCell id="_3FRUv7BG2-gvsJjdi5n-62" value="" style="endArrow=classic;html=1;rounded=0;entryX=0;entryY=0.5;entryDx=0;entryDy=0;" edge="1" parent="WIyWlLk6GJQsqaUBKTNV-1" target="_3FRUv7BG2-gvsJjdi5n-54">
          <mxGeometry width="50" height="50" relative="1" as="geometry">
            <mxPoint x="400" y="380" as="sourcePoint" />
            <mxPoint x="450" y="330" as="targetPoint" />
            <Array as="points">
              <mxPoint x="560" y="380" />
              <mxPoint x="560" y="425" />
            </Array>
          </mxGeometry>
        </mxCell>
        <mxCell id="_3FRUv7BG2-gvsJjdi5n-68" value="User + Garden Tables" style="edgeLabel;html=1;align=center;verticalAlign=middle;resizable=0;points=[];" vertex="1" connectable="0" parent="_3FRUv7BG2-gvsJjdi5n-62">
          <mxGeometry x="-0.3687" y="-2" relative="1" as="geometry">
            <mxPoint y="-2" as="offset" />
          </mxGeometry>
        </mxCell>
        <mxCell id="_3FRUv7BG2-gvsJjdi5n-70" value="User&lt;div&gt;Table&lt;/div&gt;" style="edgeLabel;html=1;align=center;verticalAlign=middle;resizable=0;points=[];" vertex="1" connectable="0" parent="_3FRUv7BG2-gvsJjdi5n-62">
          <mxGeometry x="0.7986" y="-1" relative="1" as="geometry">
            <mxPoint as="offset" />
          </mxGeometry>
        </mxCell>
        <mxCell id="_3FRUv7BG2-gvsJjdi5n-64" value="" style="endArrow=classic;html=1;rounded=0;" edge="1" parent="WIyWlLk6GJQsqaUBKTNV-1">
          <mxGeometry width="50" height="50" relative="1" as="geometry">
            <mxPoint x="610" y="300" as="sourcePoint" />
            <mxPoint x="560" y="300" as="targetPoint" />
          </mxGeometry>
        </mxCell>
        <mxCell id="_3FRUv7BG2-gvsJjdi5n-65" value="" style="endArrow=classic;html=1;rounded=0;" edge="1" parent="WIyWlLk6GJQsqaUBKTNV-1">
          <mxGeometry width="50" height="50" relative="1" as="geometry">
            <mxPoint x="610" y="331.19" as="sourcePoint" />
            <mxPoint x="560" y="331.19" as="targetPoint" />
          </mxGeometry>
        </mxCell>
        <mxCell id="_3FRUv7BG2-gvsJjdi5n-66" value="" style="endArrow=classic;html=1;rounded=0;" edge="1" parent="WIyWlLk6GJQsqaUBKTNV-1">
          <mxGeometry width="50" height="50" relative="1" as="geometry">
            <mxPoint x="610" y="190" as="sourcePoint" />
            <mxPoint x="560" y="380" as="targetPoint" />
            <Array as="points">
              <mxPoint x="560" y="190" />
            </Array>
          </mxGeometry>
        </mxCell>
        <mxCell id="_3FRUv7BG2-gvsJjdi5n-67" value="" style="endArrow=classic;html=1;rounded=0;entryX=1;entryY=0.5;entryDx=0;entryDy=0;" edge="1" parent="WIyWlLk6GJQsqaUBKTNV-1" target="_3FRUv7BG2-gvsJjdi5n-30">
          <mxGeometry width="50" height="50" relative="1" as="geometry">
            <mxPoint x="560" y="220" as="sourcePoint" />
            <mxPoint x="760" y="120" as="targetPoint" />
            <Array as="points">
              <mxPoint x="760" y="220" />
              <mxPoint x="760" y="117" />
            </Array>
          </mxGeometry>
        </mxCell>
        <mxCell id="_3FRUv7BG2-gvsJjdi5n-69" value="Garden Table" style="edgeLabel;html=1;align=center;verticalAlign=middle;resizable=0;points=[];" vertex="1" connectable="0" parent="_3FRUv7BG2-gvsJjdi5n-67">
          <mxGeometry x="-0.3794" y="-1" relative="1" as="geometry">
            <mxPoint as="offset" />
          </mxGeometry>
        </mxCell>
        <mxCell id="_3FRUv7BG2-gvsJjdi5n-78" value="Next.js&lt;div&gt;Typescript&lt;/div&gt;" style="text;html=1;align=center;verticalAlign=middle;whiteSpace=wrap;rounded=0;" vertex="1" parent="WIyWlLk6GJQsqaUBKTNV-1">
          <mxGeometry x="200" y="40" width="60" height="30" as="geometry" />
        </mxCell>
      </root>
    </mxGraphModel>
  </diagram>
</mxfile>
